<?xml version="1.0" encoding="UTF-8" standalone="no"?>
<svg
   version="1.1"
   width="6.8677263in"
   height="8.2068996in"
   viewBox="0 0 494.47729 590.89796"
   id="svg26"
   sodipodi:docname="identidade-brasileirao-seeklogo.cdr"
   xmlns:inkscape="http://www.inkscape.org/namespaces/inkscape"
   xmlns:sodipodi="http://sodipodi.sourceforge.net/DTD/sodipodi-0.dtd"
   xmlns="http://www.w3.org/2000/svg"
   xmlns:svg="http://www.w3.org/2000/svg">
  <sodipodi:namedview
     id="namedview26"
     pagecolor="#ffffff"
     bordercolor="#000000"
     borderopacity="0.25"
     inkscape:showpageshadow="2"
     inkscape:pageopacity="0.0"
     inkscape:pagecheckerboard="0"
     inkscape:deskcolor="#d1d1d1"
     inkscape:document-units="in" />
  <defs
     id="defs2" />
  <g
     id="Layer1000"
     style="fill:#c8fe08;fill-opacity:1"
     transform="translate(-177.95649,-129.7478)">
    <path
       d="m 177.9565,633.2817 v -33.0835 h 20.2303 c 6.2016,0 10.9613,0.6772 14.2934,2.0319 3.3321,1.3468 4.9984,3.2604 4.9984,5.7172 0,1.7878 -1.0185,3.3472 -3.0413,4.6857 -2.0364,1.3388 -4.6148,2.2683 -7.7749,2.7879 v 0.0946 c 3.9535,0.2911 7.1138,1.1654 9.4807,2.6065 2.3534,1.4491 3.5434,3.2051 3.5434,5.2843 0,3.032 -1.825,5.4338 -5.461,7.2136 -3.649,1.772 -8.6207,2.6618 -14.9145,2.6618 z m 12.5215,-27.5945 v 7.8438 h 5.5009 c 2.5781,0 4.6142,-0.3702 6.0953,-1.1183 1.4942,-0.7483 2.2346,-1.7719 2.2346,-3.0793 0,-2.4335 -3.0546,-3.6462 -9.15,-3.6462 z m 0,13.3799 v 8.7256 h 6.783 c 2.8828,0 5.1568,-0.4017 6.7966,-1.2048 1.6396,-0.7954 2.4597,-1.8901 2.4597,-3.2762 0,-1.323 -0.8068,-2.3545 -2.4197,-3.1105 -1.6268,-0.756 -3.8741,-1.1341 -6.7703,-1.1341 z m 84.954,14.2146 h -14.3728 l -8.6346,-8.513 c -0.6477,-0.6458 -1.269,-1.2206 -1.864,-1.7326 -0.595,-0.504 -1.19,-0.9371 -1.798,-1.2994 -0.6084,-0.3622 -1.2433,-0.6378 -1.9044,-0.8348 -0.661,-0.189 -1.3751,-0.2834 -2.1418,-0.2834 h -3.3718 v 12.6632 h -12.5215 v -33.0835 h 19.8337 c 13.4867,0 20.2303,3.0005 20.2303,8.9935 0,1.1577 -0.3041,2.2207 -0.8997,3.1972 -0.595,0.9765 -1.4278,1.8587 -2.5121,2.6462 -1.0839,0.7795 -2.3933,1.4567 -3.9268,2.0239 -1.5471,0.5749 -3.2525,1.0159 -5.1435,1.3388 v 0.0944 c 0.8329,0.1576 1.6263,0.4017 2.4064,0.7481 0.7801,0.3466 1.5205,0.7483 2.2478,1.2129 0.7271,0.4646 1.4151,0.9607 2.0761,1.4882 0.6611,0.5278 1.2561,1.0474 1.7981,1.5593 z m -34.0874,-27.5001 v 9.2061 h 5.4212 c 2.6844,0 4.8393,-0.4646 6.4656,-1.3858 1.6531,-0.9372 2.486,-2.1028 2.486,-3.481 0,-2.8981 -2.909,-4.3393 -8.7268,-4.3393 z m 88.1268,27.5001 h -13.6318 l -3.9535,-7.3633 h -19.7543 l -3.9135,7.3633 h -13.5664 l 20.2303,-33.0835 h 14.8354 z m -20.4548,-13.0805 -5.9629,-11.1198 c -0.4366,-0.8348 -0.754,-1.8269 -0.9391,-2.9769 h -0.3042 c -0.1321,0.9689 -0.4493,1.9295 -0.9652,2.8826 l -6.0423,11.2141 z m 24.8318,11.8125 v -7.3868 c 2.2479,1.1262 4.6942,1.9687 7.325,2.528 2.6314,0.559 5.2892,0.8427 7.9736,0.8427 1.5865,0 2.9616,-0.0867 4.1253,-0.2523 1.1766,-0.1732 2.1551,-0.4014 2.9486,-0.7086 0.7934,-0.2994 1.3748,-0.6537 1.7586,-1.0554 0.3962,-0.4093 0.5814,-0.8504 0.5814,-1.3308 0,-0.6458 -0.3042,-1.2206 -0.9253,-1.7246 -0.6213,-0.512 -1.4678,-0.9845 -2.539,-1.4097 -1.0709,-0.4331 -2.3403,-0.8504 -3.8208,-1.2441 -1.4678,-0.4017 -3.0546,-0.8113 -4.7605,-1.2286 -4.3367,-1.0712 -7.5764,-2.3862 -9.7053,-3.9455 -2.1282,-1.5514 -3.1864,-3.4257 -3.1864,-5.6228 0,-1.7246 0.5689,-3.2052 1.732,-4.4416 1.1636,-1.2442 2.7504,-2.2601 4.7469,-3.0634 2.01,-0.7954 4.324,-1.3859 6.9551,-1.764 2.6314,-0.3782 5.4212,-0.567 8.3698,-0.567 2.8956,0 5.461,0.1103 7.6955,0.315 2.221,0.2046 4.2837,0.5275 6.1747,0.9606 v 6.8987 c -0.9391,-0.3858 -1.9437,-0.7245 -3.0413,-1.0159 -1.0975,-0.2914 -2.2345,-0.5355 -3.3981,-0.7322 -1.1503,-0.1891 -2.3137,-0.3308 -3.464,-0.4255 -1.1503,-0.0865 -2.2348,-0.1338 -3.2663,-0.1338 -1.4278,0 -2.7105,0.0788 -3.8741,0.2364 -1.1631,0.1653 -2.1416,0.3938 -2.9484,0.6852 -0.7934,0.2911 -1.415,0.6377 -1.8643,1.0471 -0.4365,0.4096 -0.6477,0.8662 -0.6477,1.3702 0,0.5593 0.2378,1.0554 0.7271,1.4885 0.4892,0.4411 1.19,0.8583 2.1024,1.2524 0.8989,0.3858 1.9965,0.7715 3.2925,1.1497 1.2821,0.3778 2.7499,0.7636 4.3761,1.1653 2.2218,0.5514 4.2049,1.1421 5.9768,1.764 1.7717,0.6222 3.2922,1.3312 4.5482,2.1107 1.2694,0.7875 2.2349,1.6852 2.9089,2.6932 0.6744,1.0003 1.0052,2.1736 1.0052,3.5124 0,1.8507 -0.5819,3.3942 -1.7586,4.6542 -1.1769,1.2521 -2.7638,2.268 -4.7866,3.0399 -2.0097,0.7795 -4.35,1.3385 -7.0208,1.6772 -2.6844,0.3388 -5.5007,0.504 -8.4756,0.504 -3.0413,0 -5.9369,-0.1496 -8.6874,-0.4566 -2.7499,-0.3073 -5.1434,-0.7719 -7.1532,-1.3862 z m 64.1815,-31.8155 v 5.7646 h -4.6412 v 21.5543 h 4.6412 v 5.7646 h -21.8035 v -5.7646 h 4.6408 v -21.5543 h -4.6408 v -5.7646 z m 41.0556,33.0835 h -33.0826 v -33.0835 h 12.5215 v 27.0355 h 20.5611 z m 40.7908,0 h -33.3207 v -33.0835 h 32.038 v 6.0639 h -19.5165 v 7.3633 h 18.1675 v 6.04 h -18.1675 v 7.5683 h 20.7992 z m 26.0615,-33.0835 v 5.7646 h -4.6415 v 21.5543 h 4.6415 v 5.7646 H 484.134 v -5.7646 h 4.6408 v -21.5543 h -4.6408 v -5.7646 z m 54.5819,33.0835 h -14.3728 l -8.6346,-8.513 c -0.6477,-0.6458 -1.2693,-1.2206 -1.8643,-1.7326 -0.5947,-0.504 -1.1897,-0.9371 -1.798,-1.2994 -0.6084,-0.3622 -1.243,-0.6378 -1.9044,-0.8348 -0.661,-0.189 -1.3748,-0.2834 -2.1415,-0.2834 h -3.3721 v 12.6632 h -12.5215 v -33.0835 h 19.8337 c 13.4867,0 20.2303,3.0005 20.2303,8.9935 0,1.1577 -0.3041,2.2207 -0.8994,3.1972 -0.595,0.9765 -1.4278,1.8587 -2.5121,2.6462 -1.0842,0.7795 -2.3936,1.4567 -3.9268,2.0239 -1.5474,0.5749 -3.2528,1.0159 -5.1435,1.3388 v 0.0944 c 0.8328,0.1576 1.6263,0.4017 2.4064,0.7481 0.78,0.3466 1.5205,0.7483 2.2478,1.2129 0.7271,0.4646 1.4148,0.9607 2.0758,1.4882 0.6614,0.5278 1.2561,1.0474 1.7983,1.5593 z M 526.432,605.7816 v 9.2061 h 5.4215 c 2.6841,0 4.8393,-0.4646 6.4656,-1.3858 1.6528,-0.9372 2.4857,-2.1028 2.4857,-3.481 0,-2.8981 -2.909,-4.3393 -8.7268,-4.3393 z m 88.1271,27.5001 h -13.6318 l -3.9535,-7.3633 h -19.7543 l -3.9138,7.3633 h -13.5661 l 20.2303,-33.0835 h 14.8354 z m -20.4548,-13.0805 -5.9629,-11.1198 c -0.4366,-0.8348 -0.7541,-1.8269 -0.9392,-2.9769 h -0.3041 c -0.1324,0.9689 -0.4493,1.9295 -0.9652,2.8826 l -6.0426,11.2141 z m 6.9948,-30.2485 c 0,2.1577 -0.7138,3.8194 -2.1555,5.0009 -1.4278,1.1732 -3.3848,1.764 -5.8575,1.764 -2.2209,0 -4.3894,-0.3308 -6.5183,-0.9924 -2.2878,-0.7246 -3.8874,-1.0868 -4.7605,-1.0868 -2.0624,0 -3.094,0.8268 -3.094,2.4885 h -5.4604 c 0,-2.1339 0.7005,-3.7956 2.1283,-4.9771 1.4151,-1.1891 3.3985,-1.7796 5.9635,-1.7796 2.0892,0 4.2579,0.3779 6.5053,1.126 2.0364,0.6774 3.5966,1.0159 4.6547,1.0159 2.0092,0 3.0147,-0.8504 3.0147,-2.5594 z m 43.8715,43.9038 c -7.9597,0 -14.4385,-1.5434 -19.4496,-4.6227 -5.0117,-3.0869 -7.5104,-7.1033 -7.5104,-12.0569 0,-5.2291 2.5387,-9.4578 7.6294,-12.6867 5.0905,-3.2287 11.8202,-4.851 20.2167,-4.851 7.9336,0 14.3464,1.5514 19.2385,4.6384 4.8923,3.0948 7.3386,7.1742 7.3386,12.2301 0,5.1976 -2.5387,9.3951 -7.6161,12.5764 -5.0644,3.1816 -11.6884,4.7724 -19.8471,4.7724 z m 0.5423,-27.7991 c -4.3898,0 -7.8803,0.9766 -10.459,2.9452 -2.5781,1.9611 -3.8741,4.5519 -3.8741,7.7806 0,3.2763 1.296,5.8671 3.8741,7.7808 2.5787,1.9057 5.9635,2.8585 10.1418,2.8585 4.3234,0 7.7352,-0.9292 10.2736,-2.7797 2.5254,-1.8587 3.7947,-4.426 3.7947,-7.7179 0,-3.4333 -1.2294,-6.103 -3.6757,-8.0087 -2.459,-1.906 -5.8178,-2.8588 -10.0754,-2.8588 z"
       style="fill:#c8fe08;fill-opacity:1;fill-rule:evenodd"
       id="path3" />
    <g
       id="Layer1001"
       style="fill:#c8fe08;fill-opacity:1">
      <path
         d="m 278.2073,141.6227 c 32.6444,59.6304 55.8362,120.4399 70.3875,182.3308 l 76.6021,-135.9007 76.602,135.9007 c 14.5513,-61.8909 37.7431,-122.7004 70.3875,-182.3308 -95.8775,49.5316 -198.1016,49.5316 -293.9791,0 z"
         style="fill:#c8fe08;fill-opacity:1;fill-rule:evenodd"
         id="path4" />
      <g
         id="Layer1002"
         style="fill:#c8fe08;fill-opacity:1">
        <path
           d="m 339.3854,490.9127 32.2261,18.8692 c 13.1378,-50.0548 -1.1903,-96.8695 -38.3749,-140.9878 7.8348,41.694 9.9045,82.4031 6.1488,122.1186 z"
           style="fill:#c8fe08;fill-opacity:1;fill-rule:evenodd"
           id="path5" />
        <path
           d="m 511.0079,490.9127 -32.2261,18.8692 c -13.1378,-50.0548 1.1903,-96.8695 38.3749,-140.9878 -7.8348,41.694 -9.9045,82.4031 -6.1488,122.1186 z"
           style="fill:#c8fe08;fill-opacity:1;fill-rule:evenodd"
           id="path6" />
      </g>
      <path
         d="m 425.1969,209.041 -84.3447,153.888 c 45.0222,52.0272 56.6928,104.9795 40.7075,158.699 -68.5781,-19.0679 -118.9089,-81.9588 -118.9089,-156.6128 0,-33.0807 9.8873,-63.8485 26.8629,-89.5187 -4.7425,-10.9394 -9.729,-21.7807 -14.9307,-32.521 -27.0388,33.3195 -43.2429,75.7851 -43.2429,122.0397 0,107.0636 86.7927,193.8567 193.8568,193.8567 107.064,0 193.8567,-86.7931 193.8567,-193.8567 0,-46.2546 -16.2053,-88.7194 -43.2433,-122.0397 -5.2021,10.7403 -10.1882,21.5812 -14.9307,32.5206 16.9752,25.6714 26.8633,56.4384 26.8633,89.5191 0,74.654 -50.3308,137.5449 -118.9089,156.6128 -15.9853,-53.7195 -4.3147,-106.6718 40.7075,-158.699 z m 1.0088,210.366 c 31.192,0 56.478,-25.2856 56.478,-56.478 0,-31.1924 -25.286,-56.4781 -56.478,-56.4781 -31.192,0 -56.478,25.2857 -56.478,56.4781 0,31.1924 25.286,56.478 56.478,56.478 z"
         style="fill:#c8fe08;fill-opacity:1;fill-rule:evenodd"
         id="path7" />
      <g
         id="Layer1003"
         style="fill:#c8fe08;fill-opacity:1">
        <path
           d="m 259.5445,129.7478 -38.5865,3.7745 c 46.5507,73.9353 83.9793,149.1435 106.2183,226.4711 l 15.2649,-23.9574 c -16.2625,-70.8579 -45.15,-139.3884 -82.8967,-206.2882 z"
           style="fill:#c8fe08;fill-opacity:1;fill-rule:evenodd"
           id="path8" />
        <path
           d="m 590.8488,129.7478 38.5865,3.7745 C 582.8846,207.4576 545.456,282.6658 523.217,359.9934 L 507.9521,336.036 c 16.2625,-70.8579 45.15,-139.3884 82.8967,-206.2882 z"
           style="fill:#c8fe08;fill-opacity:1;fill-rule:evenodd"
           id="path9" />
      </g>
      <g
         id="Layer1004"
         style="fill:#c8fe08;fill-opacity:1">
        <path
           d="m 447.004,411.5999 c 6.2037,-2.6407 11.7976,-6.4329 16.5169,-11.1077 h -11.7335 z"
           style="fill:#c8fe08;fill-opacity:1;fill-rule:evenodd"
           id="path10" />
        <path
           d="m 405.4074,411.5999 c -6.2037,-2.6407 -11.7976,-6.4329 -16.5169,-11.1077 h 11.7335 z"
           style="fill:#c8fe08;fill-opacity:1;fill-rule:evenodd"
           id="path11" />
      </g>
      <path
         d="m 478.9044,358.6236 c -0.6198,-7.6894 -2.8855,-14.9131 -6.4429,-21.3212 l -5.8343,13.46 z"
         style="fill:#c8fe08;fill-opacity:1;fill-rule:evenodd"
         id="path12" />
      <path
         d="m 373.507,358.6236 c 0.6198,-7.6894 2.8855,-14.9131 6.4429,-21.3212 l 5.8343,13.46 z"
         style="fill:#c8fe08;fill-opacity:1;fill-rule:evenodd"
         id="path13" />
      <path
         d="m 426.2057,310.0548 c 4.1504,0 8.1885,0.4796 12.0637,1.3839 l -0.2737,4.5562 -11.79,5.0883 -11.79,-5.0883 -0.2737,-4.5562 c 3.8752,-0.9043 7.9133,-1.3839 12.0637,-1.3839 z"
         style="fill:#c8fe08;fill-opacity:1;fill-rule:evenodd"
         id="path14" />
      <path
         d="m 426.2057,342.1776 -20.9057,14.3109 8.0564,25.0176 h 12.8493 12.8493 l 8.0564,-25.0176 z"
         style="fill:#c8fe08;fill-opacity:1;fill-rule:evenodd"
         id="path15" />
      <path
         d="m 439.3283,412.2457 7.7831,-12.8269 -8.4194,-11.3424 h -12.4863 -12.4864 l -8.4193,11.3424 7.7831,12.8269 c 8.5688,0.8743 17.3134,0.8927 26.2452,0 z"
         style="fill:#c8fe08;fill-opacity:1;fill-rule:evenodd"
         id="path16" />
      <g
         id="Layer1005"
         style="fill:#c8fe08;fill-opacity:1">
        <path
           d="m 430.4799,322.7768 v 13.3565 l 17.809,14.6291 13.3569,-3.8163 2.7561,-14.9471 c -3.958,-6.1953 -9.8472,-11.3016 -17.7633,-15.2649 z"
           style="fill:#c8fe08;fill-opacity:1;fill-rule:evenodd"
           id="path17" />
        <path
           d="m 421.9315,322.7768 v 13.3565 l -17.809,14.6291 -13.357,-3.8163 -2.756,-14.9471 c 3.958,-6.1953 9.8472,-11.3016 17.7633,-15.2649 z"
           style="fill:#c8fe08;fill-opacity:1;fill-rule:evenodd"
           id="path18" />
      </g>
      <g
         id="Layer1006"
         style="fill:#c8fe08;fill-opacity:1">
        <path
           d="m 466.5951,391.7059 -11.3429,1.8021 -8.9045,-9.5516 10.1237,-23.963 8.6942,-4.9657 12.03,10.6005 c 0.0348,10.5908 -3.9913,19.0214 -10.6005,26.0777 z"
           style="fill:#c8fe08;fill-opacity:1;fill-rule:evenodd"
           id="path19" />
        <path
           d="m 385.8163,391.7059 11.3429,1.8021 8.9045,-9.5516 -10.1237,-23.963 -8.6942,-4.9657 -12.03,10.6005 c -0.0349,10.5908 3.9913,19.0214 10.6005,26.0777 z"
           style="fill:#c8fe08;fill-opacity:1;fill-rule:evenodd"
           id="path20" />
      </g>
    </g>
    <g
       id="Layer1007"
       style="fill:#c8fe08;fill-opacity:1">
      <path
         d="m 312.1242,719.6762 c 55.5139,4.4649 56.2058,-25.7976 42.4521,-26.1532 -2.7454,-0.071 -7.7908,5.2229 -9.7953,6.9193 l -18.4691,15.1294 c 2.6093,-5.5037 9.0135,-14.3019 10.7921,-18.6516 l -8.7629,1.1939 5.6399,-17.7307 13.193,0.1122 c -2.4515,4.6776 -6.2171,9.5489 -8.2802,14.2819 9.3017,-1.1735 30.3131,-9.0185 25.0502,-19.2465 -2.3883,-4.6417 -12.9693,-3.854 -19.1154,-3.854 -7.6042,0 -15.8587,-0.3042 -23.3831,0.0637 z"
         style="fill:#c8fe08;fill-opacity:1;fill-rule:evenodd"
         id="path21" />
      <path
         d="m 516.527,682.3759 c -24.7413,5.6094 -24.6538,43.683 4.5261,37.5448 23.7709,-5.0005 24.6017,-44.1486 -4.5261,-37.5448 z m 2.7999,5.8201 c -4.4041,1.7634 -6.467,7.2238 -7.4842,13.2998 -0.908,5.4232 -1.0506,15.6796 6.3544,12.6606 7.8577,-3.2035 12.1446,-30.3704 1.1298,-25.9604 z"
         style="fill:#c8fe08;fill-opacity:1;fill-rule:evenodd"
         id="path22" />
      <path
         d="m 476.8828,688.6579 1.0013,-6.2347 -11.9846,-7e-4 -7.2442,37.3509 11.7014,0.003 c 2.4879,-4.7003 3.9522,-25.5041 6.3494,-28.9855 9.6638,-3.0544 9.1792,3.3912 7.7522,10.5879 -0.6521,3.2885 -3.5791,15.9907 -3.2202,18.4136 h 11.3728 c 1.2041,-2.8094 5.6643,-26.8844 5.3391,-29.9197 -1.0666,-9.9516 -13.8362,-11.3448 -21.0672,-1.2148 z"
         style="fill:#c8fe08;fill-opacity:1;fill-rule:evenodd"
         id="path23" />
      <path
         d="m 428.5136,694.4905 c 5.011,-2.6293 19.0119,-8.0451 18.9482,2.7232 -26.7985,1.4719 -27.9964,23.1646 -15.2003,23.2888 2.5702,0.0249 5.0103,-0.8905 6.7655,-2.0205 3.0189,-1.9433 3.5109,-3.4987 5.0636,-4.5695 l -1.0034,5.8706 11.6396,-0.006 c 1.6272,-3.1867 2.9645,-13.6263 3.8069,-17.9487 1.3771,-7.0657 1.8798,-12.6693 -2.7033,-16.6077 -9.5449,-8.2023 -25.2402,-1.7099 -27.3168,9.27 z m 17.6117,8.4601 c -6.8313,-1.4177 -13.8655,3.2431 -9.7558,8.0802 1.2536,1.4754 6.1251,1.9725 7.8216,0.4322 1.154,-1.0477 1.8567,-6.5547 1.9342,-8.5124 z"
         style="fill:#c8fe08;fill-opacity:1;fill-rule:evenodd"
         id="path24" />
      <path
         d="m 397.4089,707.9279 c -3.9058,1.7801 -7.0793,3.7735 -12.5459,3.3747 -4.779,-0.3485 -8.3008,-2.7412 -8.665,-7.2774 5.9619,-0.7344 11.2247,-2.1346 16.3508,-4.169 5.924,-2.3511 10.1026,-4.2276 6.0794,-12.1023 -4.3586,-8.5311 -19.7054,-8.3179 -28.9032,1.502 -7.8213,8.3501 -8.1404,22.2469 1.1245,28.6868 6.7185,4.6698 22.1493,4.4375 26.5594,-10.0148 z m -20.7504,-11.2991 10.6639,0.0884 c 2.3083,-1.56 2.6884,-10.4474 -3.8122,-8.9266 -3.3779,0.7903 -6.2065,4.8595 -6.8517,8.8382 z"
         style="fill:#c8fe08;fill-opacity:1;fill-rule:evenodd"
         id="path25" />
      <path
         d="m 409.288,675.4329 -1.5879,6.8929 -4.7497,0.1573 -1.4364,6.3908 4.6108,0.1672 c 0.4742,6.8361 -6.374,21.5929 -2.5744,27.9485 4.3381,7.2564 16.9793,2.2975 19.0529,-7.1172 -11.6564,4.8816 -7.277,-4.3234 -4.9587,-17.1411 1.1385,-6.2945 1.447,-2.5616 7.1233,-4.126 3.1701,-0.8735 4.3531,-2.8933 5.1109,-6.1828 l -10.1661,-0.0367 1.6463,-8.5338 z"
         style="fill:#c8fe08;fill-opacity:1;fill-rule:evenodd"
         id="path26" />
    </g>
  </g>
</svg>
