<?xml version="1.0" encoding="UTF-8" standalone="no"?>
<!-- Created with Inkscape (http://www.inkscape.org/) -->

<svg
   width="182.49318mm"
   height="55.713425mm"
   viewBox="0 0 182.49318 55.713423"
   version="1.1"
   id="svg1"
   xml:space="preserve"
   xmlns:inkscape="http://www.inkscape.org/namespaces/inkscape"
   xmlns:sodipodi="http://sodipodi.sourceforge.net/DTD/sodipodi-0.dtd"
   xmlns="http://www.w3.org/2000/svg"
   xmlns:svg="http://www.w3.org/2000/svg"><sodipodi:namedview
     id="namedview1"
     pagecolor="#ffffff"
     bordercolor="#000000"
     borderopacity="0.25"
     inkscape:showpageshadow="2"
     inkscape:pageopacity="0.0"
     inkscape:pagecheckerboard="0"
     inkscape:deskcolor="#d1d1d1"
     inkscape:document-units="mm"><inkscape:page
       x="8.2649703e-06"
       y="-3.2709172e-06"
       width="182.49318"
       height="55.713421"
       id="page3"
       margin="0"
       bleed="0" /></sodipodi:namedview><defs
     id="defs1"><clipPath
       clipPathUnits="userSpaceOnUse"
       id="clipPath3"><path
         d="M 0,312.412 H 595.276 V 0 H 0 Z"
         transform="translate(-195.99111,-107.2051)"
         id="path3" /></clipPath><clipPath
       clipPathUnits="userSpaceOnUse"
       id="clipPath5"><path
         d="M 0,312.412 H 595.276 V 0 H 0 Z"
         transform="translate(-207.409,-96.3851)"
         id="path5" /></clipPath><clipPath
       clipPathUnits="userSpaceOnUse"
       id="clipPath7"><path
         d="M 0,312.412 H 595.276 V 0 H 0 Z"
         transform="translate(-250.56681,-96.313602)"
         id="path7" /></clipPath><clipPath
       clipPathUnits="userSpaceOnUse"
       id="clipPath9"><path
         d="M 0,312.412 H 595.276 V 0 H 0 Z"
         transform="translate(-271.27851,-77.817402)"
         id="path9" /></clipPath><clipPath
       clipPathUnits="userSpaceOnUse"
       id="clipPath11"><path
         d="M 0,312.412 H 595.276 V 0 H 0 Z"
         transform="translate(-309.26271,-102.1483)"
         id="path11" /></clipPath><clipPath
       clipPathUnits="userSpaceOnUse"
       id="clipPath13"><path
         d="M 0,312.412 H 595.276 V 0 H 0 Z"
         transform="translate(-342.39771,-85.143702)"
         id="path13" /></clipPath><clipPath
       clipPathUnits="userSpaceOnUse"
       id="clipPath15"><path
         d="M 0,312.412 H 595.276 V 0 H 0 Z"
         transform="translate(-401.03761,-84.4118)"
         id="path15" /></clipPath><clipPath
       clipPathUnits="userSpaceOnUse"
       id="clipPath17"><path
         d="M 0,312.412 H 595.276 V 0 H 0 Z"
         transform="translate(-86.1142,-164.32891)"
         id="path17" /></clipPath><clipPath
       clipPathUnits="userSpaceOnUse"
       id="clipPath19"><path
         d="M 0,312.412 H 595.276 V 0 H 0 Z"
         transform="translate(-153.7297,-159.4718)"
         id="path19" /></clipPath><clipPath
       clipPathUnits="userSpaceOnUse"
       id="clipPath21"><path
         d="M 0,312.412 H 595.276 V 0 H 0 Z"
         transform="translate(-240.66921,-171.5584)"
         id="path21" /></clipPath><clipPath
       clipPathUnits="userSpaceOnUse"
       id="clipPath23"><path
         d="M 0,312.412 H 595.276 V 0 H 0 Z"
         id="path23" /></clipPath><clipPath
       clipPathUnits="userSpaceOnUse"
       id="clipPath25"><path
         d="M 0,312.412 H 595.276 V 0 H 0 Z"
         transform="translate(-442.45511,-164.32891)"
         id="path25" /></clipPath><clipPath
       clipPathUnits="userSpaceOnUse"
       id="clipPath27"><path
         d="M 0,312.412 H 595.276 V 0 H 0 Z"
         transform="translate(-354.22601,-170.30191)"
         id="path27" /></clipPath><clipPath
       clipPathUnits="userSpaceOnUse"
       id="clipPath29"><path
         d="M 0,312.412 H 595.276 V 0 H 0 Z"
         transform="translate(-349.15461,-159.553)"
         id="path29" /></clipPath><clipPath
       clipPathUnits="userSpaceOnUse"
       id="clipPath31"><path
         d="M 0,312.412 H 595.276 V 0 H 0 Z"
         transform="translate(-510.06871,-159.4718)"
         id="path31" /></clipPath><clipPath
       clipPathUnits="userSpaceOnUse"
       id="clipPath33"><path
         d="M 0,312.412 H 595.276 V 0 H 0 Z"
         transform="translate(-262.30581,-211.66091)"
         id="path33" /></clipPath><clipPath
       clipPathUnits="userSpaceOnUse"
       id="clipPath35"><path
         d="M 0,312.412 H 595.276 V 0 H 0 Z"
         transform="translate(-283.00791,-221.36611)"
         id="path35" /></clipPath><clipPath
       clipPathUnits="userSpaceOnUse"
       id="clipPath37"><path
         d="M 0,312.412 H 595.276 V 0 H 0 Z"
         transform="translate(-300.98391,-211.66091)"
         id="path37" /></clipPath><clipPath
       clipPathUnits="userSpaceOnUse"
       id="clipPath39"><path
         d="M 0,312.412 H 595.276 V 0 H 0 Z"
         transform="translate(-311.76401,-234.5141)"
         id="path39" /></clipPath></defs><g
     id="g1"
     inkscape:groupmode="layer"
     inkscape:label="1"
     transform="matrix(0.26458333,0,0,0.26458334,206.2466,-94.101635)"
     style="display:inline"><g
       id="group-MC0"
       transform="translate(-831.4963,252.67048)"><path
         id="path2"
         d="m 0,0 c -0.185,2.296 -1.187,3.908 -4.282,4.397 -2.954,0.472 -4.363,-0.476 -4.614,-1.996 -0.29,-1.75 0.877,-2.611 3.925,-3.568 1.293,-0.41 2.587,-0.816 3.883,-1.218 7.677,-2.387 10.114,-5.559 9.384,-10.935 -0.804,-6.005 -6.327,-10.064 -16.24,-8.51 -9.86,1.566 -14.806,6.401 -12.888,13.92 3.107,-0.558 6.217,-1.096 9.329,-1.612 -0.638,-2.352 0.305,-4.415 4.889,-5.143 3.522,-0.554 5.178,0.29 5.448,2.09 0.235,1.571 -0.655,2.503 -3.317,3.342 -1.277,0.404 -2.552,0.812 -3.825,1.222 -7.742,2.491 -10.807,6.16 -9.807,11.712 0.961,5.296 5.806,9.359 15.114,7.869 C 5.803,10.184 9.917,5.651 9.124,-1.273 6.08,-0.869 3.039,-0.445 0,0 Z"
         style="fill:#e20613;fill-opacity:1;fill-rule:nonzero;stroke:none"
         transform="matrix(1.3333333,0,0,-1.3333333,261.32147,273.6092)"
         clip-path="url(#clipPath3)" /><path
         id="path4"
         d="M 0,0 C 0.852,6.419 1.703,12.838 2.555,19.258 5.599,18.854 8.646,18.47 11.694,18.107 10.945,11.816 10.196,5.525 9.448,-0.766 c -0.45,-3.754 1.02,-5.817 4.506,-6.207 3.485,-0.387 5.373,1.3 5.762,5.061 0.656,6.302 1.312,12.603 1.968,18.904 C 24.736,16.674 27.79,16.377 30.845,16.1 30.261,9.651 29.677,3.202 29.093,-3.247 28.329,-11.935 22.732,-16.447 13.017,-15.373 3.303,-14.279 -1.17,-8.643 0,0 Z"
         style="fill:#e20613;fill-opacity:1;fill-rule:nonzero;stroke:none"
         transform="matrix(1.3333333,0,0,-1.3333333,276.54533,288.03587)"
         clip-path="url(#clipPath5)" /><path
         id="path6"
         d="M 0,0 C 1.467,-0.104 2.935,-0.203 4.403,-0.298 7.23,-0.479 8.798,0.883 8.926,3.12 9.052,5.313 7.67,6.886 4.736,7.074 3.33,7.165 1.926,7.26 0.521,7.36 0.347,4.907 0.174,2.453 0,0 m -10.831,-16.536 c 0.909,10.78 1.818,21.56 2.727,32.34 C -3.27,15.396 1.567,15.04 6.407,14.735 13.976,14.26 18.987,9.717 18.693,2.62 18.402,-4.42 12.83,-8.593 4.969,-8.101 c -1.839,0.115 -3.678,0.238 -5.517,0.369 -0.225,-3.184 -0.45,-6.367 -0.676,-9.55 -3.203,0.227 -6.406,0.476 -9.607,0.746"
         style="fill:#e20613;fill-opacity:1;fill-rule:nonzero;stroke:none"
         transform="matrix(1.3333333,0,0,-1.3333333,334.08907,288.1312)"
         clip-path="url(#clipPath7)" /><path
         id="path8"
         d="M 0,0 C 0.433,10.81 0.866,21.619 1.299,32.429 9.221,32.112 17.148,31.932 25.076,31.891 25.062,29.245 25.048,26.598 25.034,23.952 20.115,23.978 15.195,24.056 10.277,24.187 10.239,22.74 10.201,21.293 10.162,19.846 14.363,19.734 18.565,19.66 22.767,19.625 22.745,17.056 22.723,14.488 22.701,11.92 18.453,11.956 14.205,12.03 9.957,12.143 9.917,10.634 9.877,9.124 9.837,7.615 14.937,7.48 20.039,7.399 25.141,7.374 25.128,4.727 25.115,2.081 25.102,-0.565 16.732,-0.523 8.364,-0.335 0,0 Z"
         style="fill:#e20613;fill-opacity:1;fill-rule:nonzero;stroke:none"
         transform="matrix(1.3333333,0,0,-1.3333333,361.70467,312.7928)"
         clip-path="url(#clipPath9)" /><path
         id="path10"
         d="m 0,0 c 0.032,-2.35 0.063,-4.7 0.095,-7.051 1.709,0.023 3.418,0.053 5.126,0.088 2.829,0.06 4.179,1.549 4.121,3.648 C 9.285,-1.259 7.87,0.146 4.932,0.084 3.288,0.05 1.644,0.022 0,0 m 20.327,-16.067 c 0.113,-2.69 0.226,-5.381 0.337,-8.071 -0.775,-0.267 -1.9,-0.452 -2.98,-0.493 -5.99,-0.225 -10.929,1.112 -14.374,9.317 -0.135,0.31 -0.27,0.618 -0.404,0.927 -0.904,-0.015 -1.808,-0.029 -2.712,-0.041 0.047,-3.471 0.094,-6.942 0.141,-10.413 -3.21,-0.043 -6.42,-0.065 -9.631,-0.065 0,10.818 0,21.636 -0.001,32.455 5.02,0 10.039,0.055 15.058,0.166 7.628,0.169 13.032,-3.416 13.353,-10.792 0.209,-4.991 -2.258,-8.233 -6.864,-9.544 2.194,-3.671 4.587,-3.68 6.528,-3.602 0.582,0.023 1.162,0.094 1.549,0.156 z"
         style="fill:#e20613;fill-opacity:1;fill-rule:nonzero;stroke:none"
         transform="matrix(1.3333333,0,0,-1.3333333,412.35027,280.3516)"
         clip-path="url(#clipPath11)" /><path
         id="path12"
         d="M 0,0 C 1.555,0.093 3.112,0.192 4.666,0.295 7.341,0.474 8.618,1.74 8.468,3.789 8.319,5.839 6.887,6.902 4.239,6.725 2.699,6.623 1.157,6.525 -0.385,6.433 -0.257,4.288 -0.128,2.144 0,0 m -0.776,12.959 c 1.543,0.092 3.086,0.19 4.629,0.293 2.291,0.153 3.35,1.449 3.212,3.358 -0.138,1.91 -1.357,2.99 -3.625,2.839 -1.528,-0.102 -3.058,-0.199 -4.587,-0.29 0.123,-2.067 0.247,-4.134 0.371,-6.2 z m -8.448,-20.09 c -0.501,10.807 -1.004,21.613 -1.505,32.42 4.844,0.225 9.686,0.502 14.526,0.83 7.713,0.529 11.936,-2.547 12.395,-7.811 0.328,-3.816 -2.142,-6.464 -5.006,-7.48 3.954,-0.725 6.74,-2.729 7.097,-6.824 C 18.813,-1.99 14.782,-5.648 7.069,-6.188 1.64,-6.564 -3.79,-6.879 -9.224,-7.131 Z"
         style="fill:#e20613;fill-opacity:1;fill-rule:nonzero;stroke:none"
         transform="matrix(1.3333333,0,0,-1.3333333,456.53027,303.0244)"
         clip-path="url(#clipPath13)" /><path
         id="path14"
         d="m 0,0 c -1.153,8.09 -2.306,16.181 -3.459,24.271 -2.842,-0.405 -5.686,-0.792 -8.531,-1.162 -0.342,2.624 -0.682,5.248 -1.022,7.873 8.719,1.132 17.42,2.433 26.102,3.903 0.442,-2.609 0.883,-5.218 1.325,-7.827 C 11.534,26.57 8.652,26.101 5.766,25.65 7.029,17.576 8.29,9.502 9.553,1.427 6.371,0.93 3.187,0.454 0,0 Z m -36.471,-4.249 c -0.977,10.775 -1.952,21.549 -2.928,32.323 7.827,0.709 15.644,1.553 23.449,2.532 0.329,-2.625 0.659,-5.251 0.988,-7.876 -4.812,-0.604 -9.631,-1.157 -14.452,-1.66 0.15,-1.44 0.299,-2.879 0.45,-4.319 4.186,0.436 8.369,0.91 12.548,1.422 0.313,-2.549 0.624,-5.099 0.937,-7.648 -4.226,-0.518 -8.454,-0.997 -12.687,-1.438 0.157,-1.502 0.313,-3.004 0.469,-4.505 5.081,0.529 10.16,1.114 15.232,1.753 0.332,-2.625 0.663,-5.25 0.994,-7.876 -8.322,-1.049 -16.657,-1.952 -25,-2.708 z"
         style="fill:#e20613;fill-opacity:1;fill-rule:nonzero;stroke:none"
         transform="matrix(1.3333333,0,0,-1.3333333,534.7168,304.00027)"
         clip-path="url(#clipPath15)" /><path
         id="path16"
         d="M 0,0 34.011,0.108 C 33.673,-8.023 31.2,-15.29 26.592,-21.693 21.984,-28.095 16.181,-32.556 9.183,-35.074 c -4.641,-1.653 -9.587,-2.536 -14.834,-2.644 -5.248,-0.108 -10.664,0.739 -16.247,2.536 -7.404,2.591 -13.44,7.265 -18.116,14.029 -4.678,6.762 -7.048,14.389 -7.114,22.879 0.066,8.418 2.421,15.988 7.064,22.717 4.643,6.727 10.595,11.42 17.863,14.083 4.641,1.727 9.57,2.626 14.784,2.699 5.212,0.071 10.648,-0.794 16.299,-2.591 7.13,-2.52 13.018,-6.978 17.659,-13.38 4.643,-6.405 7.132,-13.672 7.47,-21.801 L 0,3.453 c -0.538,1.869 -1.715,3.13 -3.532,3.777 -1.548,0.502 -3.062,0.502 -4.542,0 -1.076,-0.433 -1.968,-1.151 -2.673,-2.159 -0.707,-1.007 -1.061,-2.123 -1.061,-3.345 0,-1.223 0.354,-2.339 1.061,-3.344 0.705,-1.01 1.597,-1.729 2.673,-2.159 1.548,-0.505 3.095,-0.505 4.643,0 C -1.682,-3.131 -0.538,-1.872 0,0"
         style="fill:#468dcb;fill-opacity:1;fill-rule:nonzero;stroke:none"
         transform="matrix(1.3333333,0,0,-1.3333333,114.81893,197.44413)"
         clip-path="url(#clipPath17)" /><path
         id="path18"
         d="M 0,0 H 7.367 C 6.358,5.684 5.148,11.476 3.734,17.376 2.322,11.476 1.076,5.684 0,0 M 22.706,44.356 46.221,-31.189 H 10.597 c 0.066,1.943 0.033,4.064 -0.101,6.368 H -3.027 c -0.136,-2.304 -0.169,-4.425 -0.101,-6.368 h -35.625 l 23.413,75.545 z"
         style="fill:#468dcb;fill-opacity:1;fill-rule:nonzero;stroke:none"
         transform="matrix(1.3333333,0,0,-1.3333333,204.97293,203.92027)"
         clip-path="url(#clipPath19)" /><path
         id="path20"
         d="M 0,0 C 0.841,0.864 1.263,1.924 1.263,3.185 1.263,4.442 0.841,5.505 0,6.367 -0.841,7.232 -1.834,7.664 -2.976,7.664 h -5.449 v -8.958 h 5.449 c 1.142,0 2.135,0.432 2.976,1.294 m 21.144,-17.158 c 3.835,-3.454 7.097,-7.736 9.788,-12.843 2.69,-5.11 4.171,-9.533 4.441,-13.274 H 3.079 c -0.606,4.1 -2.036,8.218 -4.289,12.356 -2.256,4.136 -4.659,7.105 -7.215,8.904 v -21.26 H -39.307 V 32.269 C -11.252,32.196 3.549,32.161 5.098,32.161 9.539,32.016 13.692,30.792 17.56,28.49 21.428,26.188 24.507,23.058 26.796,19.102 29.35,14.569 30.664,9.749 30.732,4.641 V 4.425 c 0,-4.246 -0.859,-8.239 -2.575,-11.979 -1.715,-3.741 -4.054,-6.945 -7.013,-9.604"
         style="fill:#468dcb;fill-opacity:1;fill-rule:nonzero;stroke:none"
         transform="matrix(1.3333333,0,0,-1.3333333,320.89227,187.8048)"
         clip-path="url(#clipPath21)" /><path
         id="path22"
         d="m 308.216,128.314 h -30.881 v 75.545 h 30.881 z"
         style="fill:#468dcb;fill-opacity:1;fill-rule:nonzero;stroke:none"
         transform="matrix(1.3333333,0,0,-1.3333333,0,416.54933)"
         clip-path="url(#clipPath23)" /><path
         id="path24"
         d="M 0,0 34.009,0.108 C 33.671,-8.023 31.2,-15.29 26.592,-21.693 21.982,-28.095 16.179,-32.556 9.183,-35.074 4.54,-36.727 -0.404,-37.61 -5.651,-37.718 c -5.249,-0.108 -10.666,0.739 -16.249,2.536 -7.402,2.591 -13.44,7.265 -18.116,14.029 -4.676,6.762 -7.048,14.389 -7.114,22.879 0.066,8.418 2.423,15.988 7.064,22.717 4.643,6.727 10.597,11.42 17.863,14.083 4.643,1.727 9.57,2.626 14.786,2.699 5.212,0.071 10.646,-0.794 16.297,-2.591 7.132,-2.52 13.018,-6.978 17.661,-13.38 4.643,-6.405 7.13,-13.672 7.468,-21.801 L 0,3.453 c -0.54,1.869 -1.715,3.13 -3.532,3.777 -1.55,0.502 -3.063,0.502 -4.542,0 -1.078,-0.433 -1.968,-1.151 -2.675,-2.159 -0.705,-1.007 -1.059,-2.123 -1.059,-3.345 0,-1.223 0.354,-2.339 1.059,-3.344 0.707,-1.01 1.597,-1.729 2.675,-2.159 1.547,-0.505 3.093,-0.505 4.641,0 C -1.682,-3.131 -0.54,-1.872 0,0"
         style="fill:#468dcb;fill-opacity:1;fill-rule:nonzero;stroke:none"
         transform="matrix(1.3333333,0,0,-1.3333333,589.94013,197.44413)"
         clip-path="url(#clipPath25)" /><path
         id="path26"
         d="m 0,0 c 1.007,-0.707 1.726,-1.597 2.158,-2.675 0.503,-1.478 0.503,-2.992 0,-4.542 -0.641,-1.803 -1.891,-2.97 -3.737,-3.516 v -34.022 c 8.113,0.345 15.367,2.829 21.761,7.465 6.403,4.643 10.861,10.529 13.381,17.661 1.797,5.651 2.661,11.085 2.591,16.297 C 36.081,1.884 35.181,6.811 33.455,11.454 30.792,18.72 26.099,24.674 19.372,29.317 13.12,33.63 6.131,35.944 -1.579,36.306 V 0.788 C -1.027,0.612 -0.5,0.35 0,0"
         style="fill:#468dcb;fill-opacity:1;fill-rule:nonzero;stroke:none"
         transform="matrix(1.3333333,0,0,-1.3333333,472.30133,189.48013)"
         clip-path="url(#clipPath27)" /><path
         id="path28"
         d="m 0,0 c -1.872,0.54 -3.131,1.682 -3.777,3.433 -0.505,1.548 -0.505,3.094 0,4.641 0.43,1.078 1.149,1.968 2.159,2.675 0.526,0.369 1.084,0.636 1.67,0.812 V 47.059 C -7.766,46.711 -14.841,44.38 -21.153,40.016 -27.917,35.34 -32.591,29.302 -35.181,21.9 c -1.797,-5.583 -2.645,-11 -2.537,-16.249 0.108,-5.247 0.991,-10.191 2.645,-14.834 2.517,-6.996 6.978,-12.799 13.38,-17.409 6.388,-4.597 13.637,-7.065 21.745,-7.413 v 17.65 z"
         style="fill:#468dcb;fill-opacity:1;fill-rule:nonzero;stroke:none"
         transform="matrix(1.3333333,0,0,-1.3333333,465.53947,203.812)"
         clip-path="url(#clipPath29)" /><path
         id="path30"
         d="M 0,0 H 7.367 C 6.358,5.684 5.148,11.476 3.734,17.376 2.322,11.476 1.076,5.684 0,0 M 22.706,44.356 46.221,-31.189 H 10.597 c 0.066,1.943 0.033,4.064 -0.101,6.368 H -3.027 c -0.136,-2.304 -0.169,-4.425 -0.101,-6.368 h -35.625 l 23.413,75.545 z"
         style="fill:#468dcb;fill-opacity:1;fill-rule:nonzero;stroke:none"
         transform="matrix(1.3333333,0,0,-1.3333333,680.0916,203.92027)"
         clip-path="url(#clipPath31)" /><path
         id="path32"
         d="m 0,0 h -7.848 c -0.059,0 -0.129,-0.012 -0.208,-0.033 -0.217,1.64 -0.261,3.12 -0.133,4.443 0.129,1.322 0.43,2.524 0.904,3.606 0.473,1.082 0.997,2.022 1.57,2.82 0.572,0.798 1.204,1.481 1.895,2.049 0.691,0.569 1.327,1.011 1.91,1.329 0.582,0.316 1.1,0.541 1.555,0.672 0.256,0.043 0.374,0.163 0.355,0.36 -0.019,0.241 -0.247,0.339 -0.681,0.295 -2.369,-0.197 -4.353,-0.885 -5.953,-2.065 l -2.103,7.082 c 1.994,1.88 5.173,2.841 9.537,2.885 2.961,0.022 5.168,-0.782 6.619,-2.41 C 8.87,19.404 9.398,17.224 9.003,14.492 8.865,13.552 8.515,12.743 7.952,12.066 7.389,11.388 6.747,10.874 6.027,10.524 5.306,10.175 4.591,9.864 3.88,9.59 3.169,9.317 2.532,9.016 1.97,8.688 1.407,8.36 1.056,7.978 0.919,7.541 4.63,7.366 7.493,7.443 9.507,7.771 L 8.589,-0.066 Z"
         style="fill:#468dcb;fill-opacity:1;fill-rule:nonzero;stroke:none"
         transform="matrix(1.3333333,0,0,-1.3333333,349.74107,134.3348)"
         clip-path="url(#clipPath33)" /><path
         id="path34"
         d="M 0,0 C 0.335,0.109 0.612,0.306 0.829,0.59 1.046,0.874 1.154,1.191 1.154,1.541 1.154,1.89 1.046,2.202 0.829,2.476 0.612,2.749 0.335,2.939 0,3.049 c -0.494,0.152 -0.978,0.152 -1.451,0 -0.337,-0.11 -0.613,-0.3 -0.83,-0.573 C -2.498,2.202 -2.606,1.89 -2.606,1.541 V 1.508 c 0,-0.35 0.108,-0.661 0.325,-0.934 C -2.064,0.3 -1.788,0.109 -1.451,0 -0.958,-0.153 -0.474,-0.153 0,0 M 8.47,6.393 C 8.904,5.038 9.131,3.579 9.151,2.016 9.17,0.453 8.953,-1.159 8.499,-2.82 7.848,-5.006 6.682,-6.793 5.005,-8.181 3.326,-9.569 1.431,-10.274 -0.681,-10.296 h -0.06 c -2.093,0.022 -3.983,0.722 -5.671,2.099 -1.688,1.376 -2.858,3.148 -3.51,5.311 -0.434,1.355 -0.661,2.809 -0.681,4.361 -0.019,1.552 0.197,3.17 0.652,4.853 0.651,2.186 1.821,3.972 3.509,5.361 1.689,1.388 3.588,2.092 5.701,2.115 C 1.372,13.781 3.272,13.082 4.961,11.706 6.648,10.328 7.818,8.557 8.47,6.393"
         style="fill:#468dcb;fill-opacity:1;fill-rule:nonzero;stroke:none"
         transform="matrix(1.3333333,0,0,-1.3333333,377.34387,121.39453)"
         clip-path="url(#clipPath35)" /><path
         id="path36"
         d="m 0,0 h -7.848 c -0.059,0 -0.129,-0.012 -0.208,-0.033 -0.217,1.64 -0.261,3.12 -0.133,4.443 0.129,1.322 0.43,2.524 0.904,3.606 0.473,1.082 0.997,2.022 1.57,2.82 0.572,0.798 1.204,1.481 1.895,2.049 0.691,0.569 1.327,1.011 1.91,1.329 0.582,0.316 1.1,0.541 1.555,0.672 0.256,0.043 0.374,0.163 0.355,0.36 -0.019,0.241 -0.247,0.339 -0.681,0.295 -2.369,-0.197 -4.353,-0.885 -5.953,-2.065 l -2.103,7.082 c 1.994,1.88 5.173,2.841 9.537,2.885 2.961,0.022 5.168,-0.782 6.619,-2.41 C 8.87,19.404 9.398,17.224 9.003,14.492 8.865,13.552 8.515,12.743 7.952,12.066 7.389,11.388 6.747,10.874 6.027,10.524 5.306,10.175 4.591,9.864 3.88,9.59 3.169,9.317 2.532,9.016 1.97,8.688 1.407,8.36 1.056,7.978 0.919,7.541 4.63,7.366 7.493,7.443 9.507,7.771 L 8.589,-0.066 Z"
         style="fill:#468dcb;fill-opacity:1;fill-rule:nonzero;stroke:none"
         transform="matrix(1.3333333,0,0,-1.3333333,401.31187,134.3348)"
         clip-path="url(#clipPath37)" /><path
         id="path38"
         d="m 0,0 16.999,-0.033 v -7.836 c -2.685,0.393 -5.232,0.502 -7.64,0.328 -0.257,0.021 -0.44,-0.039 -0.548,-0.181 -0.109,-0.142 -0.109,-0.29 0,-0.442 0.108,-0.154 0.291,-0.23 0.548,-0.23 1.481,-0.087 2.763,-0.268 3.85,-0.541 1.085,-0.274 1.944,-0.585 2.577,-0.935 0.631,-0.35 1.144,-0.802 1.539,-1.36 0.395,-0.558 0.671,-1.088 0.83,-1.59 0.157,-0.503 0.296,-1.127 0.414,-1.87 0.138,-1.048 0.054,-2.081 -0.251,-3.097 -0.307,-1.017 -0.805,-1.941 -1.496,-2.771 -0.692,-0.831 -1.624,-1.508 -2.798,-2.033 -1.176,-0.525 -2.503,-0.808 -3.984,-0.853 -1.204,-0.021 -2.399,0.033 -3.583,0.165 -1.185,0.131 -2.192,0.3 -3.021,0.507 -0.83,0.208 -1.58,0.415 -2.252,0.623 -0.671,0.208 -1.165,0.388 -1.48,0.541 l -0.503,0.23 1.51,8.951 c 1.086,-0.896 2.591,-1.585 4.516,-2.066 1.925,-0.481 3.44,-0.72 4.546,-0.72 0.138,0 0.247,0.048 0.326,0.147 0.079,0.098 0.084,0.207 0.015,0.328 -0.069,0.119 -0.203,0.202 -0.4,0.245 -0.217,0.044 -0.632,0.115 -1.244,0.213 -0.612,0.099 -1.076,0.181 -1.392,0.247 -0.316,0.065 -0.74,0.175 -1.273,0.328 -0.533,0.152 -1.037,0.338 -1.511,0.557 -0.671,0.262 -1.253,0.579 -1.746,0.951 -0.495,0.372 -0.958,0.847 -1.393,1.426 -0.434,0.579 -0.751,1.295 -0.948,2.148 C 0.01,-7.771 -0.059,-6.787 0,-5.673 Z"
         style="fill:#468dcb;fill-opacity:1;fill-rule:nonzero;stroke:none"
         transform="matrix(1.3333333,0,0,-1.3333333,415.68533,103.86387)"
         clip-path="url(#clipPath39)" /></g></g></svg>
